<mxfile host="65bd71144e">
    <diagram id="5Ow85RW6i06cKsawMOl_" name="Seite-1">
        <mxGraphModel dx="1157" dy="575" grid="1" gridSize="10" guides="1" tooltips="1" connect="1" arrows="1" fold="1" page="1" pageScale="1" pageWidth="827" pageHeight="1169" math="0" shadow="0">
            <root>
                <mxCell id="0"/>
                <mxCell id="1" parent="0"/>
                <mxCell id="2" value="" style="rounded=1;whiteSpace=wrap;html=1;" vertex="1" parent="1">
                    <mxGeometry x="320" y="20" width="70" height="30" as="geometry"/>
                </mxCell>
                <mxCell id="6" style="edgeStyle=none;html=1;exitX=0.5;exitY=1;exitDx=0;exitDy=0;entryX=0.5;entryY=0;entryDx=0;entryDy=0;fillColor=#dae8fc;strokeColor=#6c8ebf;" edge="1" parent="1" source="3" target="5">
                    <mxGeometry relative="1" as="geometry"/>
                </mxCell>
                <mxCell id="3" value="Start" style="text;html=1;strokeColor=none;fillColor=none;align=center;verticalAlign=middle;whiteSpace=wrap;rounded=0;" vertex="1" parent="1">
                    <mxGeometry x="325" y="20" width="60" height="30" as="geometry"/>
                </mxCell>
                <mxCell id="7" value="" style="group" vertex="1" connectable="0" parent="1">
                    <mxGeometry x="317.5" y="80" width="97.5" height="45" as="geometry"/>
                </mxCell>
                <mxCell id="4" value="" style="rounded=0;whiteSpace=wrap;html=1;" vertex="1" parent="7">
                    <mxGeometry width="75" height="30" as="geometry"/>
                </mxCell>
                <mxCell id="5" value="Anweisung 1" style="text;html=1;strokeColor=none;fillColor=none;align=center;verticalAlign=middle;whiteSpace=wrap;rounded=0;" vertex="1" parent="7">
                    <mxGeometry x="7.5" width="60" height="30" as="geometry"/>
                </mxCell>
                <mxCell id="66" value="" style="rounded=0;whiteSpace=wrap;html=1;fillColor=#FFFFCC;opacity=33;" vertex="1" parent="7">
                    <mxGeometry x="-22.5" y="-15" width="120" height="60" as="geometry"/>
                </mxCell>
                <mxCell id="10" value="" style="group" vertex="1" connectable="0" parent="1">
                    <mxGeometry x="330" y="140" width="50" height="40" as="geometry"/>
                </mxCell>
                <mxCell id="8" value="" style="rhombus;whiteSpace=wrap;html=1;" vertex="1" parent="10">
                    <mxGeometry width="50" height="40" as="geometry"/>
                </mxCell>
                <mxCell id="9" value="?" style="text;html=1;strokeColor=none;fillColor=none;align=center;verticalAlign=middle;whiteSpace=wrap;rounded=0;" vertex="1" parent="10">
                    <mxGeometry y="5" width="50" height="30" as="geometry"/>
                </mxCell>
                <mxCell id="11" value="" style="endArrow=classic;html=1;exitX=1;exitY=0.5;exitDx=0;exitDy=0;fillColor=#6a00ff;strokeColor=#3700CC;" edge="1" parent="1" source="9">
                    <mxGeometry width="50" height="50" relative="1" as="geometry">
                        <mxPoint x="560" y="310" as="sourcePoint"/>
                        <mxPoint x="440" y="200" as="targetPoint"/>
                        <Array as="points">
                            <mxPoint x="440" y="160"/>
                        </Array>
                    </mxGeometry>
                </mxCell>
                <mxCell id="14" value="Ja" style="text;html=1;strokeColor=none;fillColor=none;align=center;verticalAlign=middle;whiteSpace=wrap;rounded=0;" vertex="1" parent="1">
                    <mxGeometry x="384" y="130" width="30" height="30" as="geometry"/>
                </mxCell>
                <mxCell id="15" value="" style="endArrow=classic;html=1;exitX=0;exitY=0.5;exitDx=0;exitDy=0;fillColor=#ffe6cc;strokeColor=#d79b00;" edge="1" parent="1" source="9">
                    <mxGeometry width="50" height="50" relative="1" as="geometry">
                        <mxPoint x="325" y="150" as="sourcePoint"/>
                        <mxPoint x="280" y="200" as="targetPoint"/>
                        <Array as="points">
                            <mxPoint x="280" y="160"/>
                        </Array>
                    </mxGeometry>
                </mxCell>
                <mxCell id="16" value="Nein" style="text;html=1;strokeColor=none;fillColor=none;align=center;verticalAlign=middle;whiteSpace=wrap;rounded=0;" vertex="1" parent="1">
                    <mxGeometry x="300" y="130" width="30" height="30" as="geometry"/>
                </mxCell>
                <mxCell id="19" style="edgeStyle=none;html=1;exitX=0.5;exitY=1;exitDx=0;exitDy=0;fillColor=#d5e8d4;strokeColor=#82b366;" edge="1" parent="1" source="5">
                    <mxGeometry relative="1" as="geometry">
                        <mxPoint x="355" y="140" as="targetPoint"/>
                    </mxGeometry>
                </mxCell>
                <mxCell id="21" value="" style="group" vertex="1" connectable="0" parent="1">
                    <mxGeometry x="245" y="200" width="75" height="30" as="geometry"/>
                </mxCell>
                <mxCell id="22" value="" style="rounded=0;whiteSpace=wrap;html=1;" vertex="1" parent="21">
                    <mxGeometry width="75" height="30" as="geometry"/>
                </mxCell>
                <mxCell id="23" value="Anweisung 2" style="text;html=1;strokeColor=none;fillColor=none;align=center;verticalAlign=middle;whiteSpace=wrap;rounded=0;" vertex="1" parent="21">
                    <mxGeometry x="7.5" width="60" height="30" as="geometry"/>
                </mxCell>
                <mxCell id="24" value="" style="group" vertex="1" connectable="0" parent="1">
                    <mxGeometry x="400" y="200" width="106.25" height="80" as="geometry"/>
                </mxCell>
                <mxCell id="25" value="" style="rounded=0;whiteSpace=wrap;html=1;" vertex="1" parent="24">
                    <mxGeometry width="75" height="30" as="geometry"/>
                </mxCell>
                <mxCell id="26" value="Anweisung 3" style="text;html=1;strokeColor=none;fillColor=none;align=center;verticalAlign=middle;whiteSpace=wrap;rounded=0;" vertex="1" parent="24">
                    <mxGeometry x="7.5" width="60" height="30" as="geometry"/>
                </mxCell>
                <mxCell id="68" value="" style="rounded=0;whiteSpace=wrap;html=1;fillColor=#FFFFCC;opacity=33;" vertex="1" parent="24">
                    <mxGeometry x="-13.75" y="-15" width="103.75" height="60" as="geometry"/>
                </mxCell>
                <mxCell id="27" value="" style="group" vertex="1" connectable="0" parent="1">
                    <mxGeometry x="414" y="260" width="50" height="40" as="geometry"/>
                </mxCell>
                <mxCell id="28" value="" style="rhombus;whiteSpace=wrap;html=1;" vertex="1" parent="27">
                    <mxGeometry width="50" height="40" as="geometry"/>
                </mxCell>
                <mxCell id="29" value="?" style="text;html=1;strokeColor=none;fillColor=none;align=center;verticalAlign=middle;whiteSpace=wrap;rounded=0;" vertex="1" parent="27">
                    <mxGeometry y="5" width="50" height="30" as="geometry"/>
                </mxCell>
                <mxCell id="30" style="edgeStyle=none;html=1;exitX=0.5;exitY=1;exitDx=0;exitDy=0;entryX=0.491;entryY=-0.281;entryDx=0;entryDy=0;entryPerimeter=0;" edge="1" parent="1" source="26" target="29">
                    <mxGeometry relative="1" as="geometry"/>
                </mxCell>
                <mxCell id="35" value="" style="endArrow=classic;html=1;exitX=1;exitY=0.5;exitDx=0;exitDy=0;fillColor=#fa6800;strokeColor=#C73500;" edge="1" parent="1">
                    <mxGeometry width="50" height="50" relative="1" as="geometry">
                        <mxPoint x="464" y="280" as="sourcePoint"/>
                        <mxPoint x="524" y="320" as="targetPoint"/>
                        <Array as="points">
                            <mxPoint x="524" y="280"/>
                        </Array>
                    </mxGeometry>
                </mxCell>
                <mxCell id="36" value="" style="endArrow=classic;html=1;exitX=0;exitY=0.5;exitDx=0;exitDy=0;fillColor=#a20025;strokeColor=#6F0000;" edge="1" parent="1">
                    <mxGeometry width="50" height="50" relative="1" as="geometry">
                        <mxPoint x="414" y="280" as="sourcePoint"/>
                        <mxPoint x="364" y="320" as="targetPoint"/>
                        <Array as="points">
                            <mxPoint x="364" y="280"/>
                        </Array>
                    </mxGeometry>
                </mxCell>
                <mxCell id="37" value="Ja" style="text;html=1;strokeColor=none;fillColor=none;align=center;verticalAlign=middle;whiteSpace=wrap;rounded=0;" vertex="1" parent="1">
                    <mxGeometry x="464" y="250" width="30" height="30" as="geometry"/>
                </mxCell>
                <mxCell id="38" value="Nein" style="text;html=1;strokeColor=none;fillColor=none;align=center;verticalAlign=middle;whiteSpace=wrap;rounded=0;" vertex="1" parent="1">
                    <mxGeometry x="380" y="250" width="30" height="30" as="geometry"/>
                </mxCell>
                <mxCell id="40" value="" style="group" vertex="1" connectable="0" parent="1">
                    <mxGeometry x="245" y="260" width="75" height="30" as="geometry"/>
                </mxCell>
                <mxCell id="41" value="" style="rounded=0;whiteSpace=wrap;html=1;" vertex="1" parent="40">
                    <mxGeometry width="75" height="30" as="geometry"/>
                </mxCell>
                <mxCell id="42" value="Anweisung 4" style="text;html=1;strokeColor=none;fillColor=none;align=center;verticalAlign=middle;whiteSpace=wrap;rounded=0;" vertex="1" parent="40">
                    <mxGeometry x="7.5" width="60" height="30" as="geometry"/>
                </mxCell>
                <mxCell id="43" style="edgeStyle=none;html=1;exitX=0.5;exitY=1;exitDx=0;exitDy=0;entryX=0.5;entryY=0;entryDx=0;entryDy=0;" edge="1" parent="1" source="23" target="42">
                    <mxGeometry relative="1" as="geometry"/>
                </mxCell>
                <mxCell id="44" value="" style="group" vertex="1" connectable="0" parent="1">
                    <mxGeometry x="330" y="320" width="90" height="40" as="geometry"/>
                </mxCell>
                <mxCell id="45" value="" style="rounded=0;whiteSpace=wrap;html=1;" vertex="1" parent="44">
                    <mxGeometry width="75" height="30" as="geometry"/>
                </mxCell>
                <mxCell id="46" value="Anweisung 5" style="text;html=1;strokeColor=none;fillColor=none;align=center;verticalAlign=middle;whiteSpace=wrap;rounded=0;" vertex="1" parent="44">
                    <mxGeometry x="7.5" width="60" height="30" as="geometry"/>
                </mxCell>
                <mxCell id="70" value="" style="rounded=0;whiteSpace=wrap;html=1;fillColor=#FFFFCC;opacity=33;" vertex="1" parent="44">
                    <mxGeometry x="-12.5" y="-10" width="102.5" height="50" as="geometry"/>
                </mxCell>
                <mxCell id="47" value="" style="group" vertex="1" connectable="0" parent="1">
                    <mxGeometry x="490" y="320" width="90" height="50" as="geometry"/>
                </mxCell>
                <mxCell id="48" value="" style="rounded=0;whiteSpace=wrap;html=1;" vertex="1" parent="47">
                    <mxGeometry width="75" height="30" as="geometry"/>
                </mxCell>
                <mxCell id="49" value="Anweisung 6" style="text;html=1;strokeColor=none;fillColor=none;align=center;verticalAlign=middle;whiteSpace=wrap;rounded=0;" vertex="1" parent="47">
                    <mxGeometry x="7.5" width="60" height="30" as="geometry"/>
                </mxCell>
                <mxCell id="71" value="" style="rounded=0;whiteSpace=wrap;html=1;fillColor=#FFFFCC;opacity=33;" vertex="1" parent="47">
                    <mxGeometry x="-10" y="-10" width="100" height="50" as="geometry"/>
                </mxCell>
                <mxCell id="50" style="edgeStyle=none;html=1;exitX=0.5;exitY=1;exitDx=0;exitDy=0;fillColor=#ffcd28;gradientColor=#ffa500;strokeColor=#d79b00;" edge="1" parent="1" source="49">
                    <mxGeometry relative="1" as="geometry">
                        <mxPoint x="360" y="120" as="targetPoint"/>
                        <Array as="points">
                            <mxPoint x="528" y="390"/>
                            <mxPoint x="630" y="390"/>
                            <mxPoint x="630" y="120"/>
                        </Array>
                    </mxGeometry>
                </mxCell>
                <mxCell id="53" value="" style="group" vertex="1" connectable="0" parent="1">
                    <mxGeometry x="330" y="400" width="75" height="30" as="geometry"/>
                </mxCell>
                <mxCell id="54" value="" style="rounded=0;whiteSpace=wrap;html=1;" vertex="1" parent="53">
                    <mxGeometry width="75" height="30" as="geometry"/>
                </mxCell>
                <mxCell id="55" value="Anweisung 7" style="text;html=1;strokeColor=none;fillColor=none;align=center;verticalAlign=middle;whiteSpace=wrap;rounded=0;" vertex="1" parent="53">
                    <mxGeometry x="7.5" width="60" height="30" as="geometry"/>
                </mxCell>
                <mxCell id="57" style="edgeStyle=none;html=1;exitX=0.5;exitY=1;exitDx=0;exitDy=0;entryX=0.5;entryY=0;entryDx=0;entryDy=0;fillColor=#f5f5f5;gradientColor=#b3b3b3;strokeColor=#666666;" edge="1" parent="1" source="46" target="55">
                    <mxGeometry relative="1" as="geometry"/>
                </mxCell>
                <mxCell id="58" style="edgeStyle=none;html=1;exitX=0.5;exitY=1;exitDx=0;exitDy=0;fillColor=#008a00;strokeColor=#005700;" edge="1" parent="1" source="42">
                    <mxGeometry relative="1" as="geometry">
                        <mxPoint x="360" y="370" as="targetPoint"/>
                        <Array as="points">
                            <mxPoint x="283" y="370"/>
                        </Array>
                    </mxGeometry>
                </mxCell>
                <mxCell id="60" value="" style="rounded=1;whiteSpace=wrap;html=1;" vertex="1" parent="1">
                    <mxGeometry x="332.5" y="460" width="70" height="30" as="geometry"/>
                </mxCell>
                <mxCell id="61" value="Ende" style="text;html=1;strokeColor=none;fillColor=none;align=center;verticalAlign=middle;whiteSpace=wrap;rounded=0;" vertex="1" parent="1">
                    <mxGeometry x="337.5" y="460" width="60" height="30" as="geometry"/>
                </mxCell>
                <mxCell id="63" style="edgeStyle=none;html=1;exitX=0.5;exitY=1;exitDx=0;exitDy=0;entryX=0.5;entryY=0;entryDx=0;entryDy=0;fillColor=#e3c800;strokeColor=#B09500;" edge="1" parent="1" source="55" target="61">
                    <mxGeometry relative="1" as="geometry"/>
                </mxCell>
                <mxCell id="64" value="" style="whiteSpace=wrap;html=1;aspect=fixed;fillColor=#FFFFCC;opacity=33;" vertex="1" parent="1">
                    <mxGeometry x="230" y="190" width="110" height="110" as="geometry"/>
                </mxCell>
                <mxCell id="72" value="" style="rounded=0;whiteSpace=wrap;html=1;fillColor=#FFFFCC;opacity=33;" vertex="1" parent="1">
                    <mxGeometry x="320" y="390" width="100" height="50" as="geometry"/>
                </mxCell>
                <mxCell id="74" style="edgeStyle=none;html=1;exitX=1;exitY=0;exitDx=0;exitDy=0;entryX=0;entryY=0.5;entryDx=0;entryDy=0;fontSize=18;dashed=1;" edge="1" parent="1" source="73" target="66">
                    <mxGeometry relative="1" as="geometry"/>
                </mxCell>
                <mxCell id="75" style="edgeStyle=none;html=1;exitX=1;exitY=1;exitDx=0;exitDy=0;entryX=0.077;entryY=0.009;entryDx=0;entryDy=0;entryPerimeter=0;dashed=1;fontSize=18;" edge="1" parent="1" source="73" target="64">
                    <mxGeometry relative="1" as="geometry"/>
                </mxCell>
                <mxCell id="73" value="Block" style="text;html=1;strokeColor=none;fillColor=none;align=center;verticalAlign=middle;whiteSpace=wrap;rounded=0;opacity=33;fontSize=18;fontStyle=1" vertex="1" parent="1">
                    <mxGeometry x="160" y="120" width="60" height="30" as="geometry"/>
                </mxCell>
                <mxCell id="77" style="edgeStyle=none;html=1;exitX=1;exitY=0;exitDx=0;exitDy=0;dashed=1;fontSize=18;" edge="1" parent="1" source="76">
                    <mxGeometry relative="1" as="geometry">
                        <mxPoint x="560" y="120" as="targetPoint"/>
                    </mxGeometry>
                </mxCell>
                <mxCell id="78" style="edgeStyle=none;html=1;exitX=0;exitY=0.5;exitDx=0;exitDy=0;dashed=1;fontSize=18;" edge="1" parent="1" source="76">
                    <mxGeometry relative="1" as="geometry">
                        <mxPoint x="440" y="160" as="targetPoint"/>
                    </mxGeometry>
                </mxCell>
                <mxCell id="79" style="edgeStyle=none;html=1;exitX=0.5;exitY=1;exitDx=0;exitDy=0;dashed=1;fontSize=18;" edge="1" parent="1" source="76">
                    <mxGeometry relative="1" as="geometry">
                        <mxPoint x="510" y="270" as="targetPoint"/>
                    </mxGeometry>
                </mxCell>
                <mxCell id="76" value="Zweig" style="text;html=1;strokeColor=none;fillColor=none;align=center;verticalAlign=middle;whiteSpace=wrap;rounded=0;opacity=33;fontSize=18;fontStyle=1" vertex="1" parent="1">
                    <mxGeometry x="480" y="140" width="60" height="30" as="geometry"/>
                </mxCell>
                <mxCell id="80" value="" style="verticalLabelPosition=bottom;verticalAlign=top;html=1;shape=mxgraph.basic.partConcEllipse;startAngle=0.25;endAngle=0.1;arcWidth=0.29;fontSize=18;fillColor=#dae8fc;opacity=33;strokeColor=#6c8ebf;" vertex="1" parent="1">
                    <mxGeometry x="530" y="175" width="80" height="80" as="geometry"/>
                </mxCell>
                <mxCell id="81" value="Pfad" style="text;html=1;strokeColor=none;fillColor=none;align=center;verticalAlign=middle;whiteSpace=wrap;rounded=0;opacity=33;fontSize=18;fontStyle=1" vertex="1" parent="1">
                    <mxGeometry x="540" y="200" width="60" height="30" as="geometry"/>
                </mxCell>
            </root>
        </mxGraphModel>
    </diagram>
</mxfile>